# xmcd
#
# Track frame offsets: 
#        150
#        11786
#        31554
#        44703
#        68612
#        92086
#        113995
#        135036
#        156644
#        175145
#
# Disc length: 2538 seconds
#
# Revision: 0
# Processed by: cddbd v1.5.2PL0 Copyright (c) Steve Scherf et al.
# Submitted via: ExactAudioCopy v0.99pb4
#
DISCID=7b09e80a
DTITLE=Tiny Ruins - Brightly Painted One
DYEAR=2014
DGENRE=Folk
TTITLE0=Me at the Museum, You in the Wintergardens
TTITLE1=Carriages
TTITLE2=Chainmail Maker
TTITLE3=Reasonable Man
TTITLE4=She'll Be Coming 'Round
TTITLE5=Straw Into Gold
TTITLE6=Ballad of the Hanging Parcel
TTITLE7=Jamie Blue
TTITLE8=Night Owl
TTITLE9=White Sheet Lightning
EXTD=
EXTT0=
EXTT1=
EXTT2=
EXTT3=
EXTT4=
EXTT5=
EXTT6=
EXTT7=
EXTT8=
EXTT9=
PLAYORDER=
